<?xml version="1.0" encoding="UTF-8"?>
<svg version="1.1" xmlns="http://www.w3.org/2000/svg" width="1024" height="1024">
<path d="M0 0 C337.92 0 675.84 0 1024 0 C1024 337.92 1024 675.84 1024 1024 C686.08 1024 348.16 1024 0 1024 C0 686.08 0 348.16 0 0 Z " fill="#6C5EA2" transform="translate(0,0)"/>
<path d="M0 0 C0.81766846 -0.00064453 1.63533691 -0.00128906 2.4777832 -0.00195312 C10.08418234 0.0630399 17.43933639 0.93220206 24.9375 2.1875 C24.9375 2.8475 24.9375 3.5075 24.9375 4.1875 C25.60394531 4.21328125 26.27039063 4.2390625 26.95703125 4.265625 C33.25368911 4.65311164 38.42280601 5.88267504 44.27734375 8.19921875 C48.10328994 9.62060551 51.93730521 10.40057644 55.9375 11.1875 C55.9375 11.8475 55.9375 12.5075 55.9375 13.1875 C56.54335938 13.29707031 57.14921875 13.40664062 57.7734375 13.51953125 C66.773715 15.22266068 75.13449111 17.77997975 83.59765625 21.26953125 C86.66768137 22.47396515 89.74834197 23.35554573 92.9375 24.1875 C92.9375 24.8475 92.9375 25.5075 92.9375 26.1875 C93.7728125 26.35185547 93.7728125 26.35185547 94.625 26.51953125 C101.09804428 27.86443741 107.05446068 30.02593772 113.17578125 32.4921875 C128.48611501 38.21537457 140.93342451 37.40789152 156.01953125 31.33154297 C161.86935357 29.03801324 167.79480911 26.94412179 173.70385742 24.80895996 C175.89588262 24.0150726 178.08595087 23.21602631 180.27539062 22.41503906 C238.6946404 1.05622915 238.6946404 1.05622915 264.9375 0.1875 C265.9905835 0.14882812 265.9905835 0.14882812 267.06494141 0.109375 C290.00381439 -0.63014136 309.37509005 4.2437516 327.1875 19.5 C338.1235862 29.76016328 343.16587871 41.8491203 346.35058594 56.2800293 C347.64337778 62.10975253 349.20464535 67.83023028 350.875 73.5625 C353.52456127 82.6789565 355.98651949 91.83224972 358.37158203 101.02099609 C359.23078217 104.3102722 360.11655299 107.59215217 361 110.875 C362.01514827 114.65836384 363.00822499 118.44380029 363.93359375 122.25 C365.41300964 128.33316241 366.91539147 134.33700393 369 140.25 C370.9710492 145.91005567 372.05792272 151.60671004 373.1640625 157.48828125 C373.86875238 160.85869194 374.75387217 164.03922276 375.8125 167.3125 C377.94573983 173.91577291 379.50801406 180.60666703 381.07055664 187.36181641 C382.567137 193.78171026 384.28558065 200.0769617 386.23828125 206.375 C386.91691324 209.1046929 387.07638364 211.38925186 386.9375 214.1875 C387.5975 214.1875 388.2575 214.1875 388.9375 214.1875 C389.24494141 215.56035156 389.24494141 215.56035156 389.55859375 216.9609375 C389.96271484 218.74371094 389.96271484 218.74371094 390.375 220.5625 C390.64183594 221.74585938 390.90867187 222.92921875 391.18359375 224.1484375 C391.79384695 227.08244581 391.79384695 227.08244581 392.9375 229.1875 C393.07165472 231.8598621 392.98068541 234.51000488 392.9375 237.1875 C394.47398193 237.30025269 394.47398193 237.30025269 396.04150391 237.4152832 C405.37439531 238.10348842 414.70500784 238.81689009 424.03356934 239.56159973 C428.2055669 239.89450344 432.37758294 240.22282814 436.55175781 240.52734375 C440.59965037 240.8231331 444.64315369 241.15913195 448.6875 241.5 C450.46568115 241.62145386 450.46568115 241.62145386 452.27978516 241.74536133 C460.5925542 242.49383362 468.48434309 244.6866939 474.53466797 250.80175781 C477.80240621 255.14215711 477.62106193 260.80748874 477.453125 266.01953125 C476.66861208 270.8395311 474.66999068 274.06941108 470.9375 277.1875 C466.32823175 279.92317121 463.02324601 280.5563167 457.6875 280.4609375 C456.99640137 280.44976898 456.30530273 280.43860046 455.59326172 280.42709351 C448.11909582 280.25847261 440.6729324 279.67678584 433.22851562 279.015625 C430.93938879 278.81266746 428.64955358 278.62037274 426.359375 278.4296875 C419.10097986 277.81287408 411.87223616 277.0895612 404.6484375 276.1484375 C397.62770014 275.24065842 390.62483 274.64950196 383.5625 274.1875 C375.2178183 273.60643899 366.91262871 272.92884761 358.60668945 271.93969727 C351.35684005 271.08682314 344.08850443 270.4799292 336.81347656 269.88476562 C335.89147461 269.80806641 334.96947266 269.73136719 334.01953125 269.65234375 C333.20718018 269.586521 332.3948291 269.52069824 331.55786133 269.45288086 C329.59452665 269.25404132 327.63758564 268.99026299 325.6865387 268.69422913 C322.21497437 268.22500411 318.83053092 267.96580557 315.33251953 267.81445312 C314.05813019 267.75769409 312.78374084 267.70093506 311.47073364 267.64245605 C310.08726545 267.58442227 308.70379156 267.52652426 307.3203125 267.46875 C305.86236541 267.40555567 304.40442899 267.34211447 302.94650269 267.27844238 C299.87848657 267.14520188 296.81038161 267.01432944 293.7421875 266.88525391 C289.91829502 266.72429709 286.09462905 266.5585887 282.27101517 266.39115906 C269.37137734 265.82761039 256.47237987 265.27351841 243.56542969 264.90625 C242.80759375 264.88453987 242.0497578 264.86282974 241.26895714 264.84046173 C237.66236276 264.73839201 234.05573773 264.64207653 230.44876099 264.55456543 C229.16871185 264.52044556 227.88866272 264.48632568 226.56982422 264.45117188 C225.45388885 264.42406128 224.33795349 264.39695068 223.1882019 264.36901855 C219.9375 264.1875 219.9375 264.1875 216.80027771 263.68109131 C211.36247202 262.98624065 205.97749778 263.03157802 200.50073242 263.02636719 C199.25444219 263.02149009 198.00815195 263.01661299 196.72409534 263.0115881 C193.29885209 262.99966866 189.87366477 262.9923669 186.44840813 262.98770308 C184.28130499 262.98435699 182.11421166 262.97937597 179.94711304 262.97385597 C169.0064059 262.94625034 158.06573928 262.93778454 147.125 262.9375 C146.32077874 262.93741361 145.51655747 262.93732722 144.68796587 262.93723822 C68.30762024 262.93145794 -7.39900838 265.49519929 -83.57207298 271.35035706 C-85.41007844 271.49163646 -87.24816107 271.63191633 -89.08632851 271.77107239 C-100.12914966 272.61115585 -111.08374229 273.72848183 -122.0625 275.1875 C-142.47700861 277.6457696 -163.05294697 280.11897032 -183.625 280.4375 C-184.3876416 280.45893066 -185.1502832 280.48036133 -185.93603516 280.50244141 C-190.52882076 280.53005334 -193.41448531 280.02110551 -197.0625 277.1875 C-201.0625 272.75506757 -201.0625 272.75506757 -201.0625 270.1875 C-201.7225 270.1875 -202.3825 270.1875 -203.0625 270.1875 C-204.79782105 264.98153685 -205.2211238 259.76934681 -202.93359375 254.671875 C-199.40899024 249.11349244 -195.58596112 245.05057002 -188.96875 243.4296875 C-187.8446875 243.30851563 -186.720625 243.18734375 -185.5625 243.0625 C-184.59219849 242.95204346 -184.59219849 242.95204346 -183.60229492 242.83935547 C-177.31473176 242.14767212 -171.00637333 241.62590432 -164.70458984 241.08203125 C-155.01550123 240.22793292 -145.35303374 239.14617296 -135.6875 238.0625 C-134.86408112 237.97019104 -134.04066223 237.87788208 -133.19229126 237.78277588 C-128.48202137 237.25399713 -123.77212054 236.72202987 -119.0625 236.1875 C-118.89645264 235.47207031 -118.73040527 234.75664062 -118.55932617 234.01953125 C-117.79506606 230.74087393 -117.02260021 227.4642016 -116.25 224.1875 C-115.98896484 223.06214844 -115.72792969 221.93679688 -115.45898438 220.77734375 C-114.02084486 214.70519912 -112.34343721 208.99114539 -110.0625 203.1875 C-109.68538703 201.69790377 -109.34146418 200.19855596 -109.0625 198.6875 C-108.46359788 195.76228387 -107.75817836 193.43331159 -106.625 190.625 C-105.09519975 186.77777958 -104.44037898 182.95229706 -103.75 178.875 C-102.53750817 171.78008059 -100.57542735 165.10304715 -98.33154297 158.27197266 C-95.84283246 150.65716893 -93.9177561 142.97957562 -92.0625 135.1875 C-91.48209771 132.85343586 -90.89904232 130.52002874 -90.3125 128.1875 C-89.94898438 126.7334375 -89.94898438 126.7334375 -89.578125 125.25 C-89.40796875 124.569375 -89.2378125 123.88875 -89.0625 123.1875 C-88.4025 123.1875 -87.7425 123.1875 -87.0625 123.1875 C-87.03671875 122.61644531 -87.0109375 122.04539062 -86.984375 121.45703125 C-86.54648802 115.19723782 -85.10741791 109.69999206 -83.171875 103.74609375 C-81.36087645 97.93686953 -79.96772269 92.02787832 -78.53271484 86.11669922 C-77.80641879 83.13684903 -77.05884808 80.16238039 -76.3125 77.1875 C-75.94898438 75.7334375 -75.94898438 75.7334375 -75.578125 74.25 C-75.40796875 73.569375 -75.2378125 72.88875 -75.0625 72.1875 C-74.4025 72.1875 -73.7425 72.1875 -73.0625 72.1875 C-73.02511719 71.57003906 -72.98773438 70.95257813 -72.94921875 70.31640625 C-72.54299341 65.08326802 -71.69144975 60.55009957 -69.88671875 55.62890625 C-68.56831321 51.72367657 -67.7167318 47.70876271 -66.80859375 43.69140625 C-66.0625 41.1875 -66.0625 41.1875 -64.0625 39.1875 C-63.505625 37.455 -63.505625 37.455 -62.9375 35.6875 C-58.28595741 22.84924246 -44.90078049 12.19433121 -33.0625 6.1875 C-22.24841431 1.8514306 -11.62692839 -0.00961201 0 0 Z " fill="#F6F6F8" transform="translate(387.0625,232.8125)"/>
<path d="M0 0 C7.73973975 0.94874229 14.84071981 2.42860759 22.1875 5.046875 C26.07735582 6.36510392 29.97555669 7.19511134 34 8 C34 8.66 34 9.32 34 10 C34.72445312 10.10957031 35.44890625 10.21914063 36.1953125 10.33203125 C41.70402367 11.23545988 46.04461836 12.35712979 51 15 C53.65025038 15.78974554 56.29876242 16.3945502 59 17 C59 17.66 59 18.32 59 19 C59.68964844 19.17015625 60.37929688 19.3403125 61.08984375 19.515625 C69.73652363 21.74549581 77.36455561 25.08334045 85.2734375 29.16796875 C87.17175326 30.12778954 87.17175326 30.12778954 90 31 C90 31.66 90 32.32 90 33 C90.71929687 33.1134375 91.43859375 33.226875 92.1796875 33.34375 C95.14662944 34.03411876 97.43461423 35.08487354 100.125 36.5 C102.76884242 37.88219118 105.1635506 39.05451687 108 40 C108 40.66 108 41.32 108 42 C109.06081787 42.15408325 109.06081787 42.15408325 110.14306641 42.3112793 C113.39767029 43.09586634 115.80256323 44.36428673 118.7109375 46.01953125 C119.79117188 46.62990234 120.87140625 47.24027344 121.984375 47.86914062 C123.10328125 48.51044922 124.2221875 49.15175781 125.375 49.8125 C127.04175781 50.75706055 127.04175781 50.75706055 128.7421875 51.72070312 C132.59356204 53.90544118 136.43693965 56.10390346 140.27832031 58.30615234 C143.60457213 60.21692597 143.60457213 60.21692597 147 62 C147 62.66 147 63.32 147 64 C148.27810547 64.36158203 148.27810547 64.36158203 149.58203125 64.73046875 C153.34390686 66.12773684 156.41516616 68.04504906 159.6875 70.3125 C160.32397461 70.74546387 160.96044922 71.17842773 161.61621094 71.62451172 C163.00392476 72.56995416 164.38941958 73.51865992 165.77294922 74.47021484 C168.11482219 76.0788726 170.46485448 77.67505986 172.81640625 79.26953125 C236.65301271 122.62654454 236.65301271 122.62654454 241.77734375 139.5703125 C242.13476669 145.27164432 241.13155135 148.44760718 237.30102539 152.80810547 C234.94093737 155.29244939 232.49510129 157.64968866 230 160 C229.15308594 160.86367188 228.30617188 161.72734375 227.43359375 162.6171875 C207.62848778 182.00902481 177.88130412 191.2217823 150.75 191.125 C149.68136719 191.12886719 148.61273438 191.13273438 147.51171875 191.13671875 C136.93448493 191.1238667 127.31186511 190.52315873 117.25 187.125 C116.45207031 186.86847656 115.65414062 186.61195313 114.83203125 186.34765625 C110.0964736 184.80024086 105.55895479 183.0046074 101 181 C99.48059485 180.43365358 97.95988119 179.87079722 96.4375 179.3125 C78.28340059 172.01258352 61.90459218 159.5781933 48 146 C47.37222656 145.4225 46.74445313 144.845 46.09765625 144.25 C37.15704328 135.83530544 30.12014383 125.49280238 23.5625 115.1875 C22.81867065 114.02395996 22.81867065 114.02395996 22.05981445 112.83691406 C18.87582161 107.7325297 16.32139894 102.54469043 14 97 C13.60554688 96.11828125 13.21109375 95.2365625 12.8046875 94.328125 C11.86244801 92.22194261 10.93092416 90.111203 10 88 C9.443125 86.7625 9.443125 86.7625 8.875 85.5 C7.83710873 82.53459638 7.20714699 79.56433329 6.5625 76.4921875 C5.9907786 73.95914407 5.28979403 71.49249725 4.5625 69 C3.23557975 64.20422732 2.2508514 59.39392137 1.375 54.5 C1.2519751 53.82453125 1.1289502 53.1490625 1.00219727 52.453125 C-0.65674009 42.854415 -1.17089103 33.29221747 -1.125 23.5625 C-1.12306641 22.56275146 -1.12113281 21.56300293 -1.11914062 20.53295898 C-1.0787975 13.64381091 -0.82440615 6.84551533 0 0 Z " fill="#F5F6F8" transform="translate(247,551)"/>
<path d="M0 0 C1.29998162 6.71711199 1.18603198 13.39877119 1.18530273 20.20996094 C1.18746708 22.46569331 1.20559003 24.72091787 1.22460938 26.9765625 C1.26094021 36.15514455 0.60834356 44.93723526 -1 54 C-1.15670166 54.90298828 -1.31340332 55.80597656 -1.47485352 56.73632812 C-4.28963352 72.29240699 -7.94520627 86.76006992 -15 101 C-15.61740671 102.30396828 -16.23323057 103.60868692 -16.84765625 104.9140625 C-23.22291483 118.28267953 -31.42983235 129.68318578 -41 141 C-41.53367187 141.65742187 -42.06734375 142.31484375 -42.6171875 142.9921875 C-60.36968692 164.58306517 -88.71790568 179.60108166 -115.1875 187.0625 C-118.48158134 187.99213957 -121.75295002 188.91765001 -125 190 C-132.87907094 191.08444046 -140.80960952 191.19220472 -148.75 191.1875 C-150.44938721 191.1884668 -150.44938721 191.1884668 -152.18310547 191.18945312 C-160.60852048 191.13650094 -168.71266356 190.53165294 -177 189 C-177 188.34 -177 187.68 -177 187 C-177.56847656 186.96261719 -178.13695312 186.92523437 -178.72265625 186.88671875 C-184.06288288 186.43204169 -188.1080362 185.31724601 -193 183 C-194.80838599 182.26068926 -196.62110697 181.53191409 -198.4375 180.8125 C-199.73494141 180.29623047 -199.73494141 180.29623047 -201.05859375 179.76953125 C-201.69925781 179.51558594 -202.33992187 179.26164063 -203 179 C-203 178.34 -203 177.68 -203 177 C-203.72058594 176.89429688 -204.44117188 176.78859375 -205.18359375 176.6796875 C-218.09867184 173.56287254 -230.82229504 159.56911249 -238 149 C-239.92936295 145.14127409 -239.79219502 141.17809521 -239 137 C-236.83690356 133.18069076 -234.02895832 130.15701184 -231 127 C-230.21753906 126.16339844 -229.43507813 125.32679688 -228.62890625 124.46484375 C-222.81882444 118.45024706 -216.53968194 113.19452097 -210 108 C-208.87745771 107.07728025 -207.75642985 106.15271582 -206.63671875 105.2265625 C-198.19759213 98.2924077 -189.4123837 92.04748581 -180.3515625 85.953125 C-177.03832351 83.72178868 -173.81277504 81.40854114 -170.625 79 C-162.92375999 73.32603345 -154.6499596 68.47950938 -146.484375 63.51171875 C-144.38179192 62.23231678 -142.28378693 60.94592218 -140.1875 59.65625 C-119.15113515 46.79230718 -97.47352823 35.14049445 -75 25 C-74.21367188 24.64292969 -73.42734375 24.28585937 -72.6171875 23.91796875 C-70.41829575 22.92886153 -68.21091478 21.96191571 -66 21 C-65.01902344 20.56429687 -64.03804687 20.12859375 -63.02734375 19.6796875 C-57.64572943 17.34565403 -52.87533624 15.40059111 -47 15 C-47 14.34 -47 13.68 -47 13 C-31.47265625 7.82421875 -31.47265625 7.82421875 -28.68701172 6.8972168 C-26.9634263 6.3216965 -25.24098374 5.74273548 -23.52001953 5.15942383 C-19.29302323 3.73071153 -15.07919452 2.40637402 -10.75 1.3125 C-9.77546875 1.06113281 -8.8009375 0.80976562 -7.796875 0.55078125 C-5.11386491 0.02242312 -2.72532485 -0.10443763 0 0 Z " fill="#F5F6F7" transform="translate(799,551)"/>
<path d="M0 0 C-1.86192283 1.99267584 -3.38992958 2.92846769 -6.11132812 3.24755859 C-8.66311554 3.29513603 -11.19884745 3.26098224 -13.75 3.1875 C-14.63816406 3.17396484 -15.52632812 3.16042969 -16.44140625 3.14648438 C-18.62822578 3.11121309 -20.81379966 3.06192752 -23 3 C-16.04375175 -0.67719005 -7.72355518 -0.14572746 0 0 Z " fill="#CBBFDB" transform="translate(218,475)"/>
<path d="M0 0 C-0.33 0.99 -0.66 1.98 -1 3 C-1.99 3 -2.98 3 -4 3 C-4.66 3.66 -5.32 4.32 -6 5 C-8.3828125 5.1953125 -8.3828125 5.1953125 -11.125 5.125 C-12.49011719 5.09792969 -12.49011719 5.09792969 -13.8828125 5.0703125 C-14.58148437 5.04710937 -15.28015625 5.02390625 -16 5 C-13.45212092 2.45212092 -11.48592567 2.20458327 -8 1.375 C-6.39125 0.98441406 -6.39125 0.98441406 -4.75 0.5859375 C-2 0 -2 0 0 0 Z " fill="#7E87B4" transform="translate(693,735)"/>
<path d="M0 0 C0.33 0 0.66 0 1 0 C2.01911045 3.89114901 2.16782969 5.60596507 0.5625 9.375 C0.046875 10.24125 -0.46875 11.1075 -1 12 C-2.45606519 7.47907032 -1.27032841 4.48351204 0 0 Z " fill="#D8CFE4" transform="translate(317,287)"/>
<path d="M0 0 C0.33 0.66 0.66 1.32 1 2 C-0.28062485 3.7074998 -1.61767557 5.37373596 -3 7 C-3.66 7 -4.32 7 -5 7 C-5 7.66 -5 8.32 -5 9 C-5.66 8.67 -6.32 8.34 -7 8 C-4.69 5.36 -2.38 2.72 0 0 Z " fill="#DDD5E7" transform="translate(337,251)"/>
</svg>
